<svg id="visual" viewBox="0 0 900 600" width="900" height="600" xmlns="http://www.w3.org/2000/svg" xmlns:xlink="http://www.w3.org/1999/xlink" version="1.1"><g stroke-width="1" stroke-linejoin="bevel"><path d="M411 322L319 279L375 407Z" fill="#543058" stroke="#543058"></path><path d="M319 279L272 432L375 407Z" fill="#df751f" stroke="#df751f"></path><path d="M365 202L273 229L319 279Z" fill="#c8494b" stroke="#c8494b"></path><path d="M319 279L168 335L272 432Z" fill="#121925" stroke="#121925"></path><path d="M411 322L365 202L319 279Z" fill="#74335f" stroke="#74335f"></path><path d="M272 432L284 477L375 407Z" fill="#121925" stroke="#121925"></path><path d="M519 367L411 322L375 407Z" fill="#121925" stroke="#121925"></path><path d="M519 367L514 331L411 322Z" fill="#94365f" stroke="#94365f"></path><path d="M411 322L520 221L365 202Z" fill="#94365f" stroke="#94365f"></path><path d="M419 512L519 367L375 407Z" fill="#df751f" stroke="#df751f"></path><path d="M273 229L168 335L319 279Z" fill="#543058" stroke="#543058"></path><path d="M272 432L228 508L284 477Z" fill="#d85c39" stroke="#d85c39"></path><path d="M230 128L205 229L273 229Z" fill="#121925" stroke="#121925"></path><path d="M273 229L205 229L168 335Z" fill="#372a4b" stroke="#372a4b"></path><path d="M284 477L419 512L375 407Z" fill="#121925" stroke="#121925"></path><path d="M168 335L176 432L272 432Z" fill="#74335f" stroke="#74335f"></path><path d="M176 432L228 508L272 432Z" fill="#121925" stroke="#121925"></path><path d="M284 477L293 600L419 512Z" fill="#212339" stroke="#212339"></path><path d="M372 80L335 133L365 202Z" fill="#b03c58" stroke="#b03c58"></path><path d="M365 202L335 133L273 229Z" fill="#543058" stroke="#543058"></path><path d="M618 283L520 221L514 331Z" fill="#070b0f" stroke="#070b0f"></path><path d="M514 331L520 221L411 322Z" fill="#121925" stroke="#121925"></path><path d="M205 229L129 266L168 335Z" fill="#212339" stroke="#212339"></path><path d="M89 429L127 473L176 432Z" fill="#070b0f" stroke="#070b0f"></path><path d="M83 226L129 266L205 229Z" fill="#94365f" stroke="#94365f"></path><path d="M335 133L230 128L273 229Z" fill="#94365f" stroke="#94365f"></path><path d="M89 429L176 432L168 335Z" fill="#c8494b" stroke="#c8494b"></path><path d="M176 432L127 473L228 508Z" fill="#94365f" stroke="#94365f"></path><path d="M539 508L582 432L519 367Z" fill="#b03c58" stroke="#b03c58"></path><path d="M519 367L618 283L514 331Z" fill="#df751f" stroke="#df751f"></path><path d="M419 512L539 508L519 367Z" fill="#df751f" stroke="#df751f"></path><path d="M168 600L293 600L228 508Z" fill="#212339" stroke="#212339"></path><path d="M228 508L293 600L284 477Z" fill="#121925" stroke="#121925"></path><path d="M419 512L488 600L539 508Z" fill="#070b0f" stroke="#070b0f"></path><path d="M293 600L410 600L419 512Z" fill="#c8494b" stroke="#c8494b"></path><path d="M507 124L372 80L365 202Z" fill="#94365f" stroke="#94365f"></path><path d="M335 133L291 0L230 128Z" fill="#d85c39" stroke="#d85c39"></path><path d="M0 308L89 429L168 335Z" fill="#121925" stroke="#121925"></path><path d="M595 160L507 124L520 221Z" fill="#b03c58" stroke="#b03c58"></path><path d="M520 221L507 124L365 202Z" fill="#543058" stroke="#543058"></path><path d="M539 508L582 490L582 432Z" fill="#b03c58" stroke="#b03c58"></path><path d="M566 600L582 490L539 508Z" fill="#b03c58" stroke="#b03c58"></path><path d="M703 282L618 283L728 395Z" fill="#d85c39" stroke="#d85c39"></path><path d="M582 432L618 283L519 367Z" fill="#d85c39" stroke="#d85c39"></path><path d="M230 128L83 226L205 229Z" fill="#d85c39" stroke="#d85c39"></path><path d="M129 266L0 308L168 335Z" fill="#070b0f" stroke="#070b0f"></path><path d="M410 600L488 600L419 512Z" fill="#94365f" stroke="#94365f"></path><path d="M618 283L595 160L520 221Z" fill="#372a4b" stroke="#372a4b"></path><path d="M127 473L168 600L228 508Z" fill="#c8494b" stroke="#c8494b"></path><path d="M121 600L168 600L127 473Z" fill="#070b0f" stroke="#070b0f"></path><path d="M488 600L566 600L539 508Z" fill="#c8494b" stroke="#c8494b"></path><path d="M728 395L618 283L582 432Z" fill="#94365f" stroke="#94365f"></path><path d="M0 532L121 600L127 473Z" fill="#543058" stroke="#543058"></path><path d="M83 226L0 308L129 266Z" fill="#121925" stroke="#121925"></path><path d="M89 429L0 532L127 473Z" fill="#94365f" stroke="#94365f"></path><path d="M495 0L392 0L372 80Z" fill="#070b0f" stroke="#070b0f"></path><path d="M372 80L291 0L335 133Z" fill="#b03c58" stroke="#b03c58"></path><path d="M72 90L0 212L83 226Z" fill="#070b0f" stroke="#070b0f"></path><path d="M495 0L372 80L507 124Z" fill="#121925" stroke="#121925"></path><path d="M392 0L291 0L372 80Z" fill="#372a4b" stroke="#372a4b"></path><path d="M83 226L0 212L0 308Z" fill="#372a4b" stroke="#372a4b"></path><path d="M668 173L631 130L595 160Z" fill="#c8494b" stroke="#c8494b"></path><path d="M595 160L631 130L507 124Z" fill="#d85c39" stroke="#d85c39"></path><path d="M0 308L0 439L89 429Z" fill="#121925" stroke="#121925"></path><path d="M728 395L582 432L736 471Z" fill="#372a4b" stroke="#372a4b"></path><path d="M618 283L668 173L595 160Z" fill="#74335f" stroke="#74335f"></path><path d="M703 282L668 173L618 283Z" fill="#c8494b" stroke="#c8494b"></path><path d="M72 90L83 226L230 128Z" fill="#212339" stroke="#212339"></path><path d="M168 0L72 90L230 128Z" fill="#372a4b" stroke="#372a4b"></path><path d="M600 0L495 0L507 124Z" fill="#b03c58" stroke="#b03c58"></path><path d="M736 471L582 432L582 490Z" fill="#df751f" stroke="#df751f"></path><path d="M291 0L168 0L230 128Z" fill="#c8494b" stroke="#c8494b"></path><path d="M0 439L0 532L89 429Z" fill="#df751f" stroke="#df751f"></path><path d="M566 600L662 600L582 490Z" fill="#c8494b" stroke="#c8494b"></path><path d="M662 600L736 471L582 490Z" fill="#df751f" stroke="#df751f"></path><path d="M168 0L107 0L72 90Z" fill="#c8494b" stroke="#c8494b"></path><path d="M72 90L0 98L0 212Z" fill="#74335f" stroke="#74335f"></path><path d="M0 0L0 98L72 90Z" fill="#b03c58" stroke="#b03c58"></path><path d="M686 63L600 0L631 130Z" fill="#543058" stroke="#543058"></path><path d="M631 130L600 0L507 124Z" fill="#94365f" stroke="#94365f"></path><path d="M0 532L0 600L121 600Z" fill="#d85c39" stroke="#d85c39"></path><path d="M786 211L686 63L668 173Z" fill="#372a4b" stroke="#372a4b"></path><path d="M668 173L686 63L631 130Z" fill="#121925" stroke="#121925"></path><path d="M786 211L668 173L703 282Z" fill="#74335f" stroke="#74335f"></path><path d="M809 429L795 276L728 395Z" fill="#df751f" stroke="#df751f"></path><path d="M728 395L795 276L703 282Z" fill="#94365f" stroke="#94365f"></path><path d="M795 276L786 211L703 282Z" fill="#df751f" stroke="#df751f"></path><path d="M736 471L809 429L728 395Z" fill="#d85c39" stroke="#d85c39"></path><path d="M830 480L809 429L736 471Z" fill="#543058" stroke="#543058"></path><path d="M107 0L0 0L72 90Z" fill="#74335f" stroke="#74335f"></path><path d="M662 600L773 600L736 471Z" fill="#74335f" stroke="#74335f"></path><path d="M773 600L830 480L736 471Z" fill="#212339" stroke="#212339"></path><path d="M809 429L900 338L795 276Z" fill="#b03c58" stroke="#b03c58"></path><path d="M795 276L900 188L786 211Z" fill="#d85c39" stroke="#d85c39"></path><path d="M826 62L730 0L686 63Z" fill="#543058" stroke="#543058"></path><path d="M686 63L730 0L600 0Z" fill="#94365f" stroke="#94365f"></path><path d="M900 409L809 429L830 480Z" fill="#372a4b" stroke="#372a4b"></path><path d="M900 409L900 338L809 429Z" fill="#d85c39" stroke="#d85c39"></path><path d="M786 211L826 62L686 63Z" fill="#121925" stroke="#121925"></path><path d="M900 124L826 62L786 211Z" fill="#372a4b" stroke="#372a4b"></path><path d="M900 531L900 409L830 480Z" fill="#c8494b" stroke="#c8494b"></path><path d="M900 338L900 188L795 276Z" fill="#74335f" stroke="#74335f"></path><path d="M773 600L900 531L830 480Z" fill="#212339" stroke="#212339"></path><path d="M900 188L900 124L786 211Z" fill="#121925" stroke="#121925"></path><path d="M900 0L834 0L826 62Z" fill="#df751f" stroke="#df751f"></path><path d="M826 62L834 0L730 0Z" fill="#c8494b" stroke="#c8494b"></path><path d="M773 600L900 600L900 531Z" fill="#543058" stroke="#543058"></path><path d="M900 124L900 0L826 62Z" fill="#df751f" stroke="#df751f"></path></g></svg>